<?xml version="1.0" encoding="utf-8"?>
<!-- Generator: Adobe Illustrator 24.0.2, SVG Export Plug-In . SVG Version: 6.00 Build 0)  -->
<svg version="1.1" id="Lager_1" xmlns="http://www.w3.org/2000/svg" xmlns:xlink="http://www.w3.org/1999/xlink" x="0px" y="0px"
	 viewBox="0 0 86.4 118.4" style="enable-background:new 0 0 86.4 118.4;" xml:space="preserve">
<style type="text/css">
	.st0{fill:#F6A436;}
	.st1{opacity:0.23;fill:#BD1622;enable-background:new    ;}
	.st2{fill:#412753;}
	.st3{fill:#311F41;}
</style>
<path class="st0" d="M86.4,75.3c-0.1,23.9-19.5,43.1-43.3,43.1C19.2,118.3-0.1,98.9,0,75.1C0.1,51.2,19.5-0.1,43.4,0
	S86.5,51.4,86.4,75.3z"/>
<polygon class="st1" points="13.1,47.3 36.1,47.3 36,69.5 31.9,53.9 19.9,52.1 "/>
<polygon class="st1" points="73.4,47.4 50.5,47.4 50.4,69.6 54.7,54 66.7,52.2 "/>
<polygon class="st1" points="43.2,82.7 30.9,82.7 40.6,85.5 43.2,85.6 45.7,85.5 55.4,82.8 "/>
<polygon class="st1" points="49.9,91.3 43.2,92.5 36.4,91.2 31.6,94.9 35.8,93.4 43.2,94.7 50.5,93.5 54.7,94.9 "/>
<polygon class="st1" points="45,99.4 41.5,99.4 31.6,96.7 40.8,101.7 44.7,101.9 54.7,96.8 "/>
<polygon class="st1" points="6.8,54.7 8.5,77.1 23,82.7 23,103.8 18.7,85.6 6.7,79.2 "/>
<polygon class="st1" points="78.3,54.8 76.5,77.3 62,82.8 61.9,103.9 66.3,85.7 78.3,79.4 "/>
<g>
	<path class="st2" d="M86.7,75.1c-0.1,23.9-19.5,43.2-43.3,43.1S0.2,98.7,0.3,74.9S19.8-0.3,43.7-0.2S86.8,51.2,86.7,75.1z"/>
	<polygon class="st3" points="13.4,47.1 36.4,47.1 36.3,69.3 32.1,53.7 20.2,51.9 	"/>
	<polygon class="st3" points="73.7,47.2 50.8,47.2 50.7,69.4 55,53.8 67,52 	"/>
	<polygon class="st3" points="43.5,82.5 31.2,82.5 40.9,85.3 43.5,85.4 46,85.4 55.7,82.6 	"/>
	<polygon class="st3" points="50.2,91.1 43.5,92.3 36.7,91 31.9,94.7 36.1,93.3 43.4,94.5 50.8,93.3 55,94.8 	"/>
	<polygon class="st3" points="45.3,99.2 41.8,99.3 31.9,96.5 41.1,101.5 45,101.7 55,96.6 	"/>
	<polygon class="st3" points="7.1,54.5 8.8,76.9 23.3,82.5 23.2,103.6 19,85.4 7,79 	"/>
	<polygon class="st3" points="78.6,54.7 76.8,77.1 62.3,82.6 62.2,103.7 66.6,85.5 78.6,79.2 	"/>
</g>
</svg>
