<svg id="Lager_1" data-name="Lager 1" xmlns="http://www.w3.org/2000/svg" viewBox="0 0 86.4 118.37"><defs><style>.cls-1{fill:#f6a436;}.cls-2{fill:#bd1622;opacity:0.23;}</style></defs><path class="cls-1" d="M609.38,95.94a43.2,43.2,0,0,1-86.4-.23c.06-23.86,19.54-75.12,43.4-75.06S609.45,72.08,609.38,95.94Z" transform="translate(-522.98 -20.65)"/><polygon class="cls-2" points="13.15 47.26 36.07 47.32 36.01 69.52 31.85 53.91 19.86 52.08 13.15 47.26"/><polygon class="cls-2" points="73.4 47.42 50.49 47.36 50.43 69.56 54.67 53.97 66.67 52.2 73.4 47.42"/><polygon class="cls-2" points="43.18 82.74 30.93 82.7 40.57 85.51 43.17 85.61 45.7 85.54 55.43 82.77 43.18 82.74"/><polygon class="cls-2" points="49.92 91.26 43.16 92.47 36.4 91.22 31.63 94.88 35.83 93.45 43.15 94.67 50.48 93.49 54.66 94.94 49.92 91.26"/><polygon class="cls-2" points="44.99 99.4 41.48 99.44 31.63 96.7 40.78 101.74 44.68 101.87 54.66 96.77 44.99 99.4"/><polygon class="cls-2" points="6.8 54.66 8.48 77.07 23.01 82.68 22.95 103.8 18.71 85.55 6.73 79.21 6.8 54.66"/><polygon class="cls-2" points="78.34 54.85 76.54 77.25 61.99 82.79 61.93 103.91 66.27 85.67 78.28 79.4 78.34 54.85"/></svg>