<?xml version="1.0" encoding="utf-8"?>
<!-- Generator: Adobe Illustrator 24.0.2, SVG Export Plug-In . SVG Version: 6.00 Build 0)  -->
<svg version="1.1" id="Lager_1" xmlns="http://www.w3.org/2000/svg" xmlns:xlink="http://www.w3.org/1999/xlink" x="0px" y="0px"
	 viewBox="0 0 86.4 118.4" style="enable-background:new 0 0 86.4 118.4;" xml:space="preserve">
<style type="text/css">
	.st0{fill:#F6A436;}
	.st1{opacity:0.23;fill:#BD1622;enable-background:new    ;}
	.st2{fill:#DC2521;}
</style>
<path class="st0" d="M86.4,75.3c-0.1,23.9-19.5,43.1-43.3,43.1C19.2,118.3-0.1,98.9,0,75.1C0.1,51.2,19.5-0.1,43.4,0
	S86.5,51.4,86.4,75.3z"/>
<polygon class="st1" points="13.1,47.3 36.1,47.3 36,69.5 31.9,53.9 19.9,52.1 "/>
<polygon class="st1" points="73.4,47.4 50.5,47.4 50.4,69.6 54.7,54 66.7,52.2 "/>
<polygon class="st1" points="43.2,82.7 30.9,82.7 40.6,85.5 43.2,85.6 45.7,85.5 55.4,82.8 "/>
<polygon class="st1" points="49.9,91.3 43.2,92.5 36.4,91.2 31.6,94.9 35.8,93.4 43.2,94.7 50.5,93.5 54.7,94.9 "/>
<polygon class="st1" points="45,99.4 41.5,99.4 31.6,96.7 40.8,101.7 44.7,101.9 54.7,96.8 "/>
<polygon class="st1" points="6.8,54.7 8.5,77.1 23,82.7 23,103.8 18.7,85.6 6.7,79.2 "/>
<polygon class="st1" points="78.3,54.8 76.5,77.3 62,82.8 61.9,103.9 66.3,85.7 78.3,79.4 "/>
<polygon class="st2" points="76.9,34.6 9.5,34.6 9.5,11.2 27.7,25.2 43.2,11.2 62.5,24.5 76.9,11.2 "/>
</svg>
